<svg height="409.6pt" viewBox="0 0 409.6 409.6" width="409.6pt" xmlns="http://www.w3.org/2000/svg"><path d="m409.132812 195.578125c-9.96875 5.703125-21.371093 9.222656-33.667968 9.222656-27.0625 0-50.230469-15.886719-61.28125-38.722656-7.5 2.835937-15.550782 4.585937-24.046875 4.585937-37.683594 0-68.273438-30.566406-68.273438-68.265624 0-16.828126 6.335938-32.042969 16.453125-43.949219-19.980468-11.910157-33.515625-33.5-33.515625-58.449219-113.101562 0-204.800781 91.699219-204.800781 204.800781 0 113.109375 91.699219 204.800781 204.800781 204.800781 113.117188 0 204.800781-91.691406 204.800781-204.800781 0-3.109375-.335937-6.144531-.46875-9.222656zm-204.332031 179.882813c-94.101562 0-170.671875-76.558594-170.671875-170.660157 0-84.753906 62.105469-155.269531 143.171875-168.449219 4.066407 10.703126 9.949219 20.617188 17.398438 29.390626-4.566407 11.660156-6.964844 24.097656-6.964844 36.65625 0 56.464843 45.933594 102.402343 102.402344 102.402343 2.925781 0 5.875-.132812 8.832031-.410156 18.367188 20.941406 44.496094 33.5625 73.082031 34.488281-15.835937 77.828125-84.8125 136.582032-167.25 136.582032zm0 0"/><path d="m307.199219 281.601562c0 14.136719-11.460938 25.597657-25.597657 25.597657-14.140624 0-25.601562-11.460938-25.601562-25.597657 0-14.140624 11.460938-25.601562 25.601562-25.601562 14.136719 0 25.597657 11.460938 25.597657 25.601562zm0 0"/><path d="m204.800781 315.730469c0 14.136719-11.460937 25.597656-25.601562 25.597656-14.136719 0-25.597657-11.460937-25.597657-25.597656 0-14.140625 11.460938-25.601563 25.597657-25.601563 14.140625 0 25.601562 11.460938 25.601562 25.601563zm0 0"/><path d="m221.863281 230.398438c0 14.140624-11.460937 25.601562-25.597656 25.601562-14.140625 0-25.601563-11.460938-25.601563-25.601562 0-14.136719 11.460938-25.597657 25.601563-25.597657 14.136719 0 25.597656 11.460938 25.597656 25.597657zm0 0"/><path d="m153.601562 128c0 14.136719-11.464843 25.601562-25.601562 25.601562s-25.601562-11.464843-25.601562-25.601562 11.464843-25.601562 25.601562-25.601562 25.601562 11.464843 25.601562 25.601562zm0 0"/><path d="m119.464844 213.328125c0 14.140625-11.460938 25.601563-25.601563 25.601563-14.136719 0-25.597656-11.460938-25.597656-25.601563 0-14.136719 11.460937-25.597656 25.597656-25.597656 14.140625 0 25.601563 11.460937 25.601563 25.597656zm0 0"/></svg>